#!OML:ASF X:\für Bonn\!DataBase\2005_08_11_Bastian_Final\c3d\Bastian.ASF
:FULLY-SPECIFIED
:DEGREES
341
root -2.48933 1.5859 21.0701 -979.634 -2.14292 -176.049
lowerback 56.9605 5.1855 12.2839
upperback 27.2413 -6.23755 4.35888
thorax 10.7711 -10.9807 -0.429704
lowerneck -7.80563 6.89894 -2.45036
upperneck -3.02596 9.94453 6.19086
head -0.0945692 5.24408 2.56398
rclavicle -5.06901e-015 -3.67752e-014
rhumerus -72.2716 26.3331 -102.485
rradius 70.8331
rwrist -3.62015
rhand -23.2509 -17.976
rfingers 7.12502
rthumb 3.2008 -47.9317
lclavicle -5.06901e-015 -3.67752e-014
lhumerus -50.6972 -0.649959 74.1664
lradius 57.7384
lwrist 52.014
lhand -33.306 -5.17179
lfingers 7.12502
lthumb -6.5096 24.7082
rfemur -26.3193 9.09497 23.9834
rtibia 36.1765
rfoot 4.86604 -6.73551
rtoes -15.0945
lfemur -46.2922 11.1335 -18.4362
ltibia 76.0788
lfoot 13.1523 9.47149
ltoes 16.7798
342
root -2.48727 1.57978 21.0727 -979.71 -2.19403 -176.042
lowerback 56.667 5.15296 12.2311
upperback 27.311 -6.28238 4.3339
thorax 10.8657 -10.978 -0.450974
lowerneck -7.49946 6.84092 -2.27583
upperneck -3.07532 9.84328 6.1361
head -0.145491 5.18278 2.49852
rclavicle 1.73937e-014 -1.5704e-014
rhumerus -72.7492 26.8153 -102.421
rradius 71.8226
rwrist -3.12393
rhand -22.4948 -18.3132
rfingers 7.12502
rthumb 3.93096 -48.2566
lclavicle 1.73937e-014 -1.5704e-014
lhumerus -50.7271 -0.697331 74.1108
lradius 58.15
lwrist 51.5757
lhand -33.7614 -4.96793
lfingers 7.12502
lthumb -6.94924 24.898
rfemur -26.038 9.16427 23.9258
rtibia 35.8995
rfoot 4.87321 -6.95441
rtoes -15.7398
lfemur -46.2266 11.0724 -18.4513
ltibia 76.0276
lfoot 13.2676 9.5712
ltoes 16.504
343
root -2.48589 1.5733 21.0751 -979.799 -2.23883 -176.042
lowerback 56.3395 5.11846 12.1922
upperback 27.3986 -6.32559 4.291
thorax 10.9841 -10.9679 -0.50457
lowerneck -7.18573 6.78119 -2.03948
upperneck -3.12781 9.73743 6.06592
head -0.194795 5.11887 2.41749
rclavicle 2.56432e-014 7.7526e-015
rhumerus -73.2155 27.2378 -102.284
rradius 72.8723
rwrist -2.62634
rhand -21.6182 -18.5167
rfingers 7.12502
rthumb 4.7774 -48.4429
lclavicle 2.56432e-014 7.7526e-015
lhumerus -50.7038 -0.777202 74.0412
lradius 58.5439
lwrist 51.1246
lhand -34.2103 -4.78421
lfingers 7.12502
lthumb -7.38257 25.067
rfemur -25.7438 9.1135 23.888
rtibia 35.6235
rfoot 4.84063 -7.14184
rtoes -16.1338
lfemur -46.1509 11.0112 -18.4692
ltibia 75.9693
lfoot 13.4587 9.61246
ltoes 15.9523
344
root -2.48572 1.56774 21.0789 -979.886 -2.30573 -176.081
lowerback 55.99 5.11173 12.0979
upperback 27.4874 -6.3583 4.25151
thorax 11.1025 -10.9581 -0.533984
lowerneck -6.8622 6.72665 -1.7893
upperneck -3.13928 9.63335 5.98453
head -0.231802 5.05464 2.33178
rclavicle -1.31198e-014 6.75868e-015
rhumerus -73.6767 27.7302 -102.03
rradius 73.9942
rwrist -2.19664
rhand -20.63 -18.6103
rfingers 7.12502
rthumb 5.73154 -48.5128
lclavicle -1.31198e-014 6.75868e-015
lhumerus -50.6365 -0.837722 73.9863
lradius 58.8512
lwrist 50.6408
lhand -34.558 -4.77776
lfingers 7.12502
lthumb -7.71821 25.0614
rfemur -25.4772 8.97979 23.8194
rtibia 35.3615
rfoot 4.80858 -7.25395
rtoes -16.4533
lfemur -46.0523 10.966 -18.5354
ltibia 75.8981
lfoot 13.6294 9.65952
ltoes 15.3825
345
root -2.48525 1.56208 21.0818 -979.998 -2.34982 -176.102
lowerback 55.6363 5.09231 12.033
upperback 27.5862 -6.40142 4.20975
thorax 11.2376 -10.9531 -0.579854
lowerneck -6.56286 6.66858 -1.48685
upperneck -3.14397 9.5221 5.86808
head -0.258298 4.98688 2.22774
rclavicle 1.55549e-014 -5.36719e-015
rhumerus -74.0239 28.2217 -101.669
rradius 75.1013
rwrist -1.87979
rhand -19.6083 -18.5532
rfingers 7.12502
rthumb 6.71791 -48.4266
lclavicle 1.55549e-014 -5.36719e-015
lhumerus -50.5499 -0.865928 73.9135
lradius 59.1331
lwrist 50.1644
lhand -34.8696 -4.99994
lfingers 7.12502
lthumb -8.01891 24.8279
rfemur -25.1877 8.87022 23.7791
rtibia 35.1056
rfoot 4.75412 -7.44475
rtoes -16.9274
lfemur -45.931 10.9195 -18.5682
ltibia 75.8194
lfoot 13.8505 9.64074
ltoes 14.6095
346
root -2.48616 1.55607 21.0854 -980.098 -2.4169 -176.138
lowerback 55.2465 5.08189 11.9341
upperback 27.677 -6.428 4.16269
thorax 11.3619 -10.9329 -0.619117
lowerneck -6.19782 6.6014 -1.11474
upperneck -3.14095 9.39095 5.698
head -0.286975 4.90599 2.09258
rclavicle -2.78299e-015 -2.22639e-014
rhumerus -74.3074 28.6666 -101.182
rradius 76.1844
rwrist -1.59912
rhand -18.5756 -18.3695
rfingers 7.12502
rthumb 7.71478 -48.2088
lclavicle -2.78299e-015 -2.22639e-014
lhumerus -50.5432 -0.950502 73.8685
lradius 59.4595
lwrist 49.6409
lhand -35.1721 -5.29819
lfingers 7.12502
lthumb -8.3109 24.5183
rfemur -24.9239 8.72243 23.7042
rtibia 34.8658
rfoot 4.70346 -7.62563
rtoes -17.2074
lfemur -45.7998 10.8404 -18.6382
ltibia 75.7178
lfoot 14.04 9.66611
ltoes 14.0341
347
root -2.48574 1.55009 21.089 -980.207 -2.4383 -176.148
lowerback 54.8456 5.05809 11.8688
upperback 27.7672 -6.45822 4.12743
thorax 11.4921 -10.9132 -0.661043
lowerneck -5.87277 6.52937 -0.796845
upperneck -3.08021 9.25671 5.58444
head -0.29665 4.82576 1.98892
rclavicle -3.98066e-014 7.95139e-015
rhumerus -74.514 29.1133 -100.561
rradius 77.2495
rwrist -1.33908
rhand -17.6254 -18.0705
rfingers 7.12502
rthumb 8.6318 -47.874
lclavicle -3.98066e-014 7.95139e-015
lhumerus -50.5384 -0.971181 73.826
lradius 59.7863
lwrist 48.9791
lhand -35.497 -5.56029
lfingers 7.12502
lthumb -8.62445 24.2436
rfemur -24.6677 8.60521 23.6755
rtibia 34.6424
rfoot 4.65514 -7.93414
rtoes -17.3514
lfemur -45.6748 10.7685 -18.6577
ltibia 75.6099
lfoot 14.3199 9.57926
ltoes 13.0376
348
root -2.48594 1.54452 21.094 -980.319 -2.50766 -176.166
lowerback 54.4319 5.04613 11.769
upperback 27.8596 -6.48195 4.09361
thorax 11.6256 -10.8911 -0.688335
lowerneck -5.55426 6.42423 -0.527274
upperneck -3.0222 9.08473 5.50648
head -0.309241 4.72789 1.90541
rclavicle -1.62506e-014 -1.19271e-014
rhumerus -74.7352 29.558 -99.8614
rradius 78.3663
rwrist -1.13813
rhand -16.8369 -17.776
rfingers 7.12502
rthumb 9.39273 -47.5467
lclavicle -1.62506e-014 -1.19271e-014
lhumerus -50.609 -1.03355 73.8091
lradius 60.2576
lwrist 48.3027
lhand -35.8257 -5.81469
lfingers 7.12502
lthumb -8.9416 23.9758
rfemur -24.4179 8.48823 23.5841
rtibia 34.442
rfoot 4.58553 -8.31731
rtoes -17.4828
lfemur -45.5118 10.6486 -18.7303
ltibia 75.4583
lfoot 14.5565 9.50502
ltoes 12.1883
349
root -2.48665 1.53862 21.0984 -980.442 -2.52742 -176.183
lowerback 54.0305 5.01645 11.6922
upperback 27.9344 -6.51048 4.05321
thorax 11.7382 -10.8674 -0.726961
lowerneck -5.1918 6.33268 -0.300174
upperneck -2.95854 8.93624 5.47385
head -0.332783 4.64177 1.84242
rclavicle 8.10048e-015 4.57205e-015
rhumerus -74.94 30.0156 -99.0921
rradius 79.4171
rwrist -0.789105
rhand -16.1614 -17.3677
rfingers 7.12502
rthumb 10.0445 -47.108
lclavicle 8.10048e-015 4.57205e-015
lhumerus -50.6986 -1.01403 73.7738
lradius 60.6297
lwrist 47.4675
lhand -36.199 -6.10813
lfingers 7.12502
lthumb -9.30185 23.6667
rfemur -24.1643 8.29166 23.5666
rtibia 34.2547
rfoot 4.55376 -8.67521
rtoes -17.6381
lfemur -45.3326 10.5352 -18.7513
ltibia 75.2929
lfoot 14.8647 9.33946
ltoes 11.5976
350
root -2.48664 1.53434 21.1052 -980.579 -2.61279 -176.219
lowerback 53.6434 5.01766 11.5452
upperback 28.0004 -6.51935 4.01489
thorax 11.8353 -10.8406 -0.732825
lowerneck -4.82084 6.21249 -0.108987
upperneck -2.88762 8.75111 5.44634
head -0.356455 4.53718 1.78729
rclavicle -6.55989e-015 9.34288e-015
rhumerus -75.0675 30.4726 -98.2771
rradius 80.3832
rwrist -0.424512
rhand -15.7487 -17.0242
rfingers 7.12502
rthumb 10.4426 -46.7449
lclavicle -6.55989e-015 9.34288e-015
lhumerus -50.7922 -1.02888 73.7534
lradius 60.9641
lwrist 46.5375
lhand -36.5882 -6.36779
lfingers 7.12502
lthumb -9.67739 23.3899
rfemur -23.8965 8.15908 23.4623
rtibia 34.0854
rfoot 4.51542 -9.08289
rtoes -17.5347
lfemur -45.1044 10.4141 -18.8398
ltibia 75.0791
lfoot 15.1336 9.1428
ltoes 10.9629
351
root -2.48559 1.52865 21.1102 -980.712 -2.63307 -176.229
lowerback 53.2301 5.00388 11.4562
upperback 28.0863 -6.54176 3.98759
thorax 11.9682 -10.8204 -0.75786
lowerneck -4.53439 6.09413 -0.0172434
upperneck -2.77384 8.57464 5.49577
head -0.361252 4.4409 1.77802
rclavicle -2.13694e-015 1.2921e-014
rhumerus -75.0204 30.9731 -97.4083
rradius 81.2514
rwrist 0.123408
rhand -15.5065 -16.7134
rfingers 7.12502
rthumb 10.6762 -46.4221
lclavicle -2.13694e-015 1.2921e-014
lhumerus -50.8386 -1.00516 73.7196
lradius 61.2649
lwrist 45.5368
lhand -36.9934 -6.71269
lfingers 7.12502
lthumb -10.0683 23.0265
rfemur -23.6451 8.02416 23.431
rtibia 33.9297
rfoot 4.45711 -9.50007
rtoes -17.2477
lfemur -44.8848 10.2865 -18.8534
ltibia 74.8494
lfoot 15.4436 8.87307
ltoes 10.3993
352
root -2.48445 1.52303 21.1169 -980.86 -2.70026 -176.253
lowerback 52.862 4.99964 11.3216
upperback 28.1395 -6.54532 3.95531
thorax 12.0526 -10.7908 -0.760034
lowerneck -4.1832 5.95748 0.057745
upperneck -2.67335 8.37464 5.53918
head -0.38076 4.33104 1.76713
rclavicle -6.80837e-015 2.32578e-014
rhumerus -74.8717 31.4617 -96.5248
rradius 82.033
rwrist 0.858272
rhand -15.4402 -16.4788
rfingers 7.12502
rthumb 10.7401 -46.1842
lclavicle -6.80837e-015 2.32578e-014
lhumerus -50.9052 -1.00992 73.6902
lradius 61.5141
lwrist 44.4494
lhand -37.4397 -7.20118
lfingers 7.12502
lthumb -10.4988 22.5166
rfemur -23.3846 7.91752 23.3326
rtibia 33.7843
rfoot 4.3634 -9.93967
rtoes -16.4068
lfemur -44.6194 10.1139 -18.9047
ltibia 74.5805
lfoot 15.6736 8.70111
ltoes 10.3497
